<svg width="92" height="130" viewBox="0 0 92 130" fill="none" xmlns="http://www.w3.org/2000/svg">
<path d="M46.206 25.339L17.5306 7.91702V25.339L33.4614 36.4257V53.0558V69.6858L0.00683594 51.076V71.6656L46.206 129.871V25.339Z" fill="#FF645A"/>
<path fill-rule="evenodd" clip-rule="evenodd" d="M78.0674 42.761L92.0068 51.076L61.3402 69.6858V53.0558L78.0674 42.761ZM33.4614 53.0558L15.141 42.761L0.00683594 51.076L33.4614 69.6858V53.0558Z" fill="#21BEC5"/>
<path d="M33.4614 0.370605L17.5306 7.91702L46.206 25.339L78.0674 7.91702L67.5068 0.370605L48.0068 10.3706L33.4614 0.370605Z" fill="#21BEC5"/>
<path d="M78.0674 7.91702L46.206 25.339V129.871L92.0068 71.6656V51.076L61.3402 69.6858V53.0558V36.4257L78.0674 25.339V7.91702Z" fill="#1D4244"/>
</svg>
